<?xml version="1.0" standalone="no"?><svg xmlns="http://www.w3.org/2000/svg" viewBox="0 0 1440 320"><path fill="#f3f4f5" fill-opacity="1" d="M0,224L40,218.7C80,213,160,203,240,170.7C320,139,400,85,480,90.7C560,96,640,160,720,160C800,160,880,96,960,85.3C1040,75,1120,117,1200,117.3C1280,117,1360,75,1400,53.3L1440,32L1440,320L1400,320C1360,320,1280,320,1200,320C1120,320,1040,320,960,320C880,320,800,320,720,320C640,320,560,320,480,320C400,320,320,320,240,320C160,320,80,320,40,320L0,320Z"></path></svg>